# xmcd
#
# Track frame offsets: 
#        150
#        11040
#        23047
#        36100
#        46775
#        62897
#        79149
#        91408
#        103736
#        125253
#        146136
#        178245
#        181971
#        196370
#        226094
#        240323
#
# Disc length: 3477 seconds
#
# Revision: 3
# Processed by: cddbd v1.5.2PL0 Copyright (c) Steve Scherf et al.
# Submitted via: ExactAudioCopy v1.1
#
DISCID=cf0d9310
DTITLE=The Buzzcocks - A Different Kind Of Tension - Disc 1
DYEAR=1979
DGENRE=Rock
TTITLE0=Paradise
TTITLE1=Sitting Round At Home
TTITLE2=You Say You Don't Love Me
TTITLE3=You Know You Can't Help It
TTITLE4=Mad Mad Judy
TTITLE5=Raison d'Etre
TTITLE6=I Don't Know What To Do With My Life
TTITLE7=Money
TTITLE8=Hollow Inside
TTITLE9=A Different Kind Of Tension
TTITLE10=I Believe
TTITLE11=Radio Nine
TTITLE12=Everybody's Happy Nowadays
TTITLE13=Why Can't I Touch It
TTITLE14=Harmony In My Head
TTITLE15=Something's Gone Wrong Again
EXTD=
EXTT0=
EXTT1=
EXTT2=
EXTT3=
EXTT4=
EXTT5=
EXTT6=
EXTT7=
EXTT8=
EXTT9=
EXTT10=
EXTT11=
EXTT12=
EXTT13=
EXTT14=
EXTT15=
PLAYORDER=
